#!OML:ASF F:\VICON\USERDATA\INSTALL\rory3\rory3.ASF
:FULLY-SPECIFIED
:DEGREES
2039
root -9.58285 18.2254 4.84147 -119.679 -88.2691 123.62
lowerback 10.1533 2.99624 -4.03703
upperback -0.288592 3.27458 -2.7258
thorax -6.07217 1.6621 -1.09051
lowerneck -11.7417 5.55149 -2.87475
upperneck 0.313639 7.76604 -1.5057
head 2.04781 3.77869 0.415814
rclavicle 7.95139e-015 4.21423e-014
rhumerus 94.9796 -26.5396 -57.0493
rradius 24.3665
rwrist -11.4562
rhand -35.1455 -3.6058
rfingers 7.12502
rthumb -8.28523 -33.4233
lclavicle 7.95139e-015 4.21423e-014
lhumerus 74.1128 31.5297 32.6524
lradius 44.4216
lwrist 47.358
lhand -10.6148 16.222
lfingers 7.12502
lthumb 15.3916 45.629
rfemur -0.261057 17.4469 18.5617
rtibia 44.626
rfoot -25.7573 -3.09939
rtoes -6.66668
lfemur -23.4363 -1.01971 -20.5165
ltibia 46.1335
lfoot -14.6972 1.87087
ltoes -20.7634
2040
root -9.6131 18.262 4.82799 -128.332 -88.6923 132.254
lowerback 10.0395 2.97868 -3.5091
upperback -0.333992 3.33254 -2.62546
thorax -6.03074 1.67942 -1.2834
lowerneck -11.4977 5.61719 -2.70227
upperneck 0.655348 7.84425 -1.62933
head 2.12992 3.81237 0.35204
rclavicle -2.64384e-014 -4.77083e-015
rhumerus 94.2657 -26.6174 -56.6997
rradius 24.5969
rwrist -11.9044
rhand -36.8559 -3.65248
rfingers 7.12502
rthumb -9.93559 -33.398
lclavicle -2.64384e-014 -4.77083e-015
lhumerus 72.5932 31.0187 31.7802
lradius 44.6196
lwrist 47.4453
lhand -11.0616 16.4636
lfingers 7.12502
lthumb 14.9611 45.9032
rfemur -0.436857 17.3088 19.0381
rtibia 44.6378
rfoot -25.547 -2.6179
rtoes -6.23524
lfemur -23.3241 -1.34752 -19.8728
ltibia 46.0261
lfoot -14.3683 1.80608
ltoes -20.6627
2041
root -9.65331 18.3022 4.81243 -129.529 -88.8284 133.411
lowerback 9.79115 3.08063 -3.31215
upperback -0.318544 3.51111 -2.58481
thorax -5.86572 1.76299 -1.36219
lowerneck -11.534 5.54639 -2.78122
upperneck 1.18808 7.77985 -1.52756
head 2.30888 3.77557 0.408175
rclavicle 7.84206e-014 -1.98785e-014
rhumerus 93.3362 -26.9601 -55.8041
rradius 24.7462
rwrist -12.36
rhand -36.8811 -3.32357
rfingers 7.12502
rthumb -9.95997 -33.0679
lclavicle 7.84206e-014 -1.98785e-014
lhumerus 71.4122 30.3284 31.4121
lradius 44.7359
lwrist 47.203
lhand -12.3392 17.7975
lfingers 7.12502
lthumb 13.7301 47.3245
rfemur -0.529198 16.9744 19.0528
rtibia 44.5052
rfoot -25.2538 -2.02542
rtoes -6.28641
lfemur -23.0486 -1.72985 -19.6584
ltibia 45.7735
lfoot -13.9964 2.02215
ltoes -21.1311
2042
root -9.69039 18.3391 4.79754 -127.614 -88.9121 131.449
lowerback 9.54849 3.17173 -3.18501
upperback -0.302453 3.66136 -2.59358
thorax -5.70374 1.83363 -1.44861
lowerneck -11.6131 5.47589 -2.81425
upperneck 1.83561 7.70886 -1.30733
head 2.53299 3.73834 0.498471
rclavicle -3.90612e-014 1.90833e-014
rhumerus 92.5642 -27.1906 -55.2469
rradius 24.7345
rwrist -12.1657
rhand -37.7464 -3.8481
rfingers 7.12502
rthumb -10.7947 -33.5507
lclavicle -3.90612e-014 1.90833e-014
lhumerus 70.4334 29.7065 31.1295
lradius 44.5453
lwrist 47.2311
lhand -13.4566 18.9306
lfingers 7.12502
lthumb 12.653 48.5274
rfemur -0.597924 16.7076 18.9997
rtibia 44.2777
rfoot -25.0162 -1.51538
rtoes -6.76946
lfemur -22.6956 -1.94045 -19.5349
ltibia 45.3831
lfoot -13.5779 2.12355
ltoes -21.2919
2043
root -9.72695 18.3779 4.78197 -130.926 -88.9604 134.658
lowerback 9.3978 3.2166 -3.13033
upperback -0.302292 3.73762 -2.57291
thorax -5.61653 1.87058 -1.45895
lowerneck -11.5954 5.55128 -2.64722
upperneck 2.41585 7.80384 -1.22288
head 2.73009 3.78259 0.516447
rclavicle 6.65929e-015 2.46493e-014
rhumerus 91.9204 -27.1623 -54.9736
rradius 24.7245
rwrist -11.7176
rhand -38.8509 -5.73391
rfingers 7.12502
rthumb -11.8599 -35.378
lclavicle 6.65929e-015 2.46493e-014
lhumerus 69.1566 29.1819 30.3655
lradius 44.2234
lwrist 47.329
lhand -13.7553 19.4095
lfingers 7.12502
lthumb 12.3651 49.0239
rfemur -0.622675 16.4342 18.966
rtibia 43.969
rfoot -24.7989 -1.30394
rtoes -7.98693
lfemur -22.2046 -2.01521 -19.3813
ltibia 44.8842
lfoot -13.1592 2.07058
ltoes -21.3529
2044
root -9.77153 18.4236 4.76322 -127.878 -88.6801 131.422
lowerback 9.25673 3.49695 -3.34973
upperback -0.275173 4.09915 -2.50273
thorax -5.53033 2.05565 -1.30558
lowerneck -11.2851 5.35295 -3.33888
upperneck 2.74841 7.61693 -0.852231
head 2.74464 3.69382 0.73725
rclavicle 3.97569e-015 7.95139e-015
rhumerus 90.8136 -27.5218 -53.6754
rradius 24.7787
rwrist -11.3206
rhand -38.7694 -7.07694
rfingers 7.12502
rthumb -11.7813 -36.7256
lclavicle 3.97569e-015 7.95139e-015
lhumerus 68.2071 28.3222 30.2676
lradius 43.701
lwrist 46.9501
lhand -13.6072 19.228
lfingers 7.12502
lthumb 12.5078 48.8337
rfemur -0.542875 16.1 18.523
rtibia 43.6129
rfoot -24.6336 -1.21522
rtoes -9.51335
lfemur -21.5323 -2.12078 -19.6234
ltibia 44.3756
lfoot -12.754 2.1062
ltoes -21.0003
2045
root -9.81468 18.4719 4.74218 -124.065 -88.3242 127.512
lowerback 8.98798 3.59407 -3.80615
upperback -0.240891 4.18629 -2.5925
thorax -5.37086 2.10743 -1.13867
lowerneck -11.279 5.39281 -3.32323
upperneck 3.22355 7.66539 -0.529506
head 2.8931 3.7245 0.853034
rclavicle 1.00386e-014 -2.22639e-014
rhumerus 90.0228 -27.671 -52.924
rradius 24.6818
rwrist -10.6738
rhand -38.645 -6.33105
rfingers 7.12502
rthumb -11.6614 -35.9865
lclavicle 1.00386e-014 -2.22639e-014
lhumerus 66.8938 27.7019 29.5409
lradius 43.2672
lwrist 46.399
lhand -13.3409 18.7774
lfingers 7.12502
lthumb 12.7646 48.3672
rfemur -0.595719 15.809 17.9462
rtibia 43.2247
rfoot -24.5404 -1.09667
rtoes -10.7112
lfemur -20.9674 -2.16795 -19.9588
ltibia 43.8727
lfoot -12.3565 2.35196
ltoes -21.0658
2046
root -9.83875 18.5215 4.72049 -133.848 -88.7321 137.55
lowerback 8.76797 3.85728 -3.07859
upperback -0.35263 4.63995 -2.44472
thorax -5.32263 2.31911 -1.43936
lowerneck -11.2621 5.019 -4.3414
upperneck 3.64134 7.2741 0.217983
head 2.9754 3.53984 1.25712
rclavicle -1.70955e-014 8.74653e-015
rhumerus 88.3423 -28.5535 -50.7857
rradius 24.9001
rwrist -10.2211
rhand -38.2896 -5.31461
rfingers 7.12502
rthumb -11.3186 -34.9892
lclavicle -1.70955e-014 8.74653e-015
lhumerus 66.525 26.6834 30.1615
lradius 42.7078
lwrist 45.7033
lhand -12.6101 18.5201
lfingers 7.12502
lthumb 13.469 48.0646
rfemur -1.11911 15.4936 18.2581
rtibia 42.8397
rfoot -24.4117 -1.06846
rtoes -10.9003
lfemur -20.975 -2.13339 -19.3269
ltibia 43.4089
lfoot -11.776 2.55324
ltoes -22.076
2047
root -9.86182 18.5719 4.69873 -146.113 -89.1126 150.038
lowerback 8.45734 3.38503 -3.00717
upperback -0.411118 4.03006 -2.50366
thorax -5.19756 2.0168 -1.43908
lowerneck -11.6189 5.61085 -2.96115
upperneck 4.08793 7.8986 0.120143
head 3.2402 3.86081 1.05265
rclavicle 2.40529e-014 -8.74653e-015
rhumerus 88.9894 -27.7755 -52.7904
rradius 24.675
rwrist -8.02698
rhand -37.949 -4.54994
rfingers 7.12502
rthumb -10.9901 -34.2423
lclavicle 2.40529e-014 -8.74653e-015
lhumerus 64.4147 26.7768 28.1807
lradius 42.4162
lwrist 45.4886
lhand -11.5608 19.0343
lfingers 7.12502
lthumb 14.4802 48.5091
rfemur -1.61989 15.0244 18.4794
rtibia 42.4527
rfoot -24.3469 -1.09515
rtoes -10.3212
lfemur -21.0001 -2.30198 -18.7574
ltibia 42.9751
lfoot -11.1887 2.7013
ltoes -22.7976
